<svg width="33" height="32" viewBox="0 0 33 32" fill="none" xmlns="http://www.w3.org/2000/svg">
<mask id="mask0_2_8918" style="mask-type:alpha" maskUnits="userSpaceOnUse" x="16" y="6" width="17" height="26">
<rect x="16.5664" y="6.08862" width="15.7167" height="25.9113" rx="0.83495" fill="#C4C4C4"/>
</mask>
<g mask="url(#mask0_2_8918)">
<path d="M22.015 22.2265C22.1771 21.8493 22.5102 21.5421 22.9208 21.5421H25.6695C26.1731 21.5421 26.5665 21.9866 26.4441 22.475C26.1024 23.8381 25.414 24.9626 24.3789 25.8484C23.1317 26.9288 21.5074 27.4691 19.5058 27.4691C16.9962 27.4691 15.0254 26.6973 13.5935 25.1538C12.177 23.5949 11.4688 21.5112 11.4688 18.9027C11.4688 16.2943 12.177 14.2183 13.5935 12.6748C15.0254 11.1159 16.9962 10.3364 19.5058 10.3364C21.415 10.3364 22.9778 10.8381 24.1941 11.8413C25.1701 12.6241 25.8513 13.6055 26.2376 14.7856C26.3995 15.2802 26.0019 15.754 25.4814 15.754H22.671C22.2898 15.754 21.975 15.4835 21.7806 15.1555C21.3768 14.4741 20.6185 14.1334 19.5058 14.1334C18.3357 14.1334 17.435 14.5733 16.8037 15.4531C16.1724 16.3174 15.8568 17.4673 15.8568 18.9027C15.8568 20.3382 16.1724 21.4958 16.8037 22.3756C17.435 23.2399 18.3357 23.6721 19.5058 23.6721C20.2603 23.6721 20.8684 23.4869 21.3303 23.1164C21.6327 22.8818 21.8609 22.5851 22.015 22.2265Z" fill="#3158D6"/>
</g>
<path d="M10.8183 17.9656C10.9796 17.5885 11.3128 17.2822 11.7229 17.2822H14.5832C15.0872 17.2822 15.4807 17.7274 15.3579 18.2161C15.0088 19.6064 14.3018 20.7528 13.237 21.6552C11.9583 22.7524 10.2928 23.301 8.24058 23.301C5.66737 23.301 3.64669 22.5173 2.17854 20.9499C0.726181 19.3668 0 17.2509 0 14.602C0 11.9531 0.726181 9.84494 2.17854 8.27755C3.64669 6.69449 5.66737 5.90295 8.24058 5.90295C10.1981 5.90295 11.8004 6.41236 13.0476 7.43116C14.0521 8.22904 14.752 9.2302 15.1473 10.4346C15.3098 10.9297 14.9121 11.4045 14.391 11.4045H11.4679C11.0874 11.4045 10.7727 11.1352 10.5794 10.8075C10.1669 10.1083 9.38735 9.75873 8.24058 9.75873C7.0408 9.75873 6.11729 10.2054 5.47004 11.0989C4.82279 11.9766 4.49917 13.1443 4.49917 14.602C4.49917 16.0596 4.82279 17.2352 5.47004 18.1286C6.11729 19.0063 7.0408 19.4452 8.24058 19.4452C9.01412 19.4452 9.63768 19.2571 10.1113 18.8809C10.4246 18.6401 10.6603 18.335 10.8183 17.9656Z" fill="#3661EB"/>
<mask id="mask1_2_8918" style="mask-type:alpha" maskUnits="userSpaceOnUse" x="11" y="0" width="19" height="11">
<rect width="18.1238" height="10.761" rx="0.83495" transform="matrix(1 0 0 -1 11.186 10.761)" fill="#C4C4C4"/>
</mask>
<g mask="url(#mask1_2_8918)">
<path d="M22.0155 3.39463C22.1776 3.01737 22.5107 2.71019 22.9213 2.71019H25.67C26.1736 2.71019 26.567 3.15465 26.4446 3.64307C26.1029 5.00619 25.4145 6.13066 24.3794 7.0165C23.1322 8.09693 21.5079 8.63715 19.5063 8.63715C16.9967 8.63715 15.0259 7.86541 13.594 6.32193C12.1775 4.76302 11.4692 2.67932 11.4692 0.0708342C11.4692 -2.53765 12.1775 -4.61363 13.594 -6.15711C15.0259 -7.71603 16.9967 -8.49548 19.5063 -8.49548C21.4155 -8.49548 22.9783 -7.99385 24.1946 -6.99059C25.1706 -6.20785 25.8518 -5.22643 26.2381 -4.04635C26.4 -3.55169 26.0024 -3.07787 25.4819 -3.07787H22.6715C22.2903 -3.07787 21.9755 -3.34842 21.7811 -3.67639C21.3773 -4.35781 20.619 -4.69852 19.5063 -4.69852C18.3362 -4.69852 17.4355 -4.25863 16.8042 -3.37885C16.1729 -2.5145 15.8573 -1.3646 15.8573 0.0708342C15.8573 1.50627 16.1729 2.66388 16.8042 3.54367C17.4355 4.40802 18.3362 4.84019 19.5063 4.84019C20.2608 4.84019 20.8689 4.65497 21.3308 4.28454C21.6332 4.04985 21.8614 3.75321 22.0155 3.39463Z" fill="#00458A"/>
</g>
</svg>
