<svg width="24" height="25" viewBox="0 0 24 25" fill="none" xmlns="http://www.w3.org/2000/svg">
<path d="M12.0199 21.03C9.68987 21.03 7.35987 20.66 5.14987 19.92C4.30987 19.63 3.66987 19.04 3.38987 18.27C3.09987 17.5 3.19987 16.65 3.65987 15.89L4.80987 13.98C5.04987 13.58 5.26987 12.78 5.26987 12.31V9.42004C5.26987 5.70004 8.29987 2.67004 12.0199 2.67004C15.7399 2.67004 18.7699 5.70004 18.7699 9.42004V12.31C18.7699 12.77 18.9899 13.58 19.2299 13.99L20.3699 15.89C20.7999 16.61 20.8799 17.48 20.5899 18.27C20.2999 19.06 19.6699 19.66 18.8799 19.92C16.6799 20.66 14.3499 21.03 12.0199 21.03ZM12.0199 4.17004C9.12987 4.17004 6.76987 6.52004 6.76987 9.42004V12.31C6.76987 13.04 6.46987 14.12 6.09987 14.75L4.94987 16.66C4.72987 17.03 4.66987 17.42 4.79987 17.75C4.91987 18.09 5.21987 18.35 5.62987 18.49C9.80987 19.89 14.2399 19.89 18.4199 18.49C18.7799 18.37 19.0599 18.1 19.1899 17.74C19.3199 17.38 19.2899 16.99 19.0899 16.66L17.9399 14.75C17.5599 14.1 17.2699 13.03 17.2699 12.3V9.42004C17.2699 6.52004 14.9199 4.17004 12.0199 4.17004Z" fill="#1B1B1B"/>
<path d="M13.8801 4.44005C13.8101 4.44005 13.7401 4.43005 13.6701 4.41005C13.3801 4.33005 13.1001 4.27005 12.8301 4.23005C11.9801 4.12005 11.1601 4.18005 10.3901 4.41005C10.1101 4.50005 9.81011 4.41005 9.62011 4.20005C9.43011 3.99005 9.37011 3.69005 9.48011 3.42005C9.89011 2.37005 10.8901 1.68005 12.0301 1.68005C13.1701 1.68005 14.1701 2.36005 14.5801 3.42005C14.6801 3.69005 14.6301 3.99005 14.4401 4.20005C14.2901 4.36005 14.0801 4.44005 13.8801 4.44005Z" fill="#1B1B1B"/>
<path d="M12.02 23.3101C11.03 23.3101 10.07 22.9101 9.37002 22.2101C8.67002 21.5101 8.27002 20.5501 8.27002 19.5601H9.77002C9.77002 20.1501 10.01 20.7301 10.43 21.1501C10.85 21.5701 11.43 21.8101 12.02 21.8101C13.26 21.8101 14.27 20.8001 14.27 19.5601H15.77C15.77 21.6301 14.09 23.3101 12.02 23.3101Z" fill="#1B1B1B"/>
</svg>
