<svg width="20" height="20" viewBox="0 0 20 20" fill="none" xmlns="http://www.w3.org/2000/svg">
<path d="M5 7.5V12.5C5 14.1667 5.83333 15 7.5 15H12.5C14.1667 15 15 14.1667 15 12.5V10C15 9.5 14.6667 9.16667 14.1667 9.16667C13.6667 9.16667 13.3333 8.83333 13.3333 8.33333V7.5C13.3333 5.83333 12.5 5 10.8333 5H7.5C5.83333 5 5 5.83333 5 7.5Z" stroke="#1E3581" stroke-width="1.5" stroke-miterlimit="10"/>
<path d="M8.3335 8.33337H10.0002" stroke="#1E3581" stroke-width="1.5" stroke-miterlimit="10" stroke-linecap="round" stroke-linejoin="round"/>
<path d="M8.3335 11.6666H11.6668" stroke="#1E3581" stroke-width="1.5" stroke-miterlimit="10" stroke-linecap="round" stroke-linejoin="round"/>
<path d="M12.4998 18.3333H7.49984C3.33317 18.3333 1.6665 16.6666 1.6665 12.5V7.49996C1.6665 3.33329 3.33317 1.66663 7.49984 1.66663H12.4998C16.6665 1.66663 18.3332 3.33329 18.3332 7.49996V12.5C18.3332 16.6666 16.6665 18.3333 12.4998 18.3333Z" stroke="#1E3581" stroke-width="1.5" stroke-linecap="round" stroke-linejoin="round"/>
</svg>
